<svg width="128" height="128" xmlns="http://www.w3.org/2000/svg">

 <g>
  <title>background</title>
  <rect fill="none" id="canvas_background" height="402" width="582" y="-1" x="-1"/>
 </g>
 <g>
  <title>Layer 1</title>
  <path id="svg_2" fill="#000000" d="m120.99512,7.40039c-1.54492,0 -36.01856,0.21387 -56.99512,17.20166c-20.9751,-16.98779 -55.4502,-17.20166 -56.99512,-17.20166l-5.27734,0l0,105.54688l5.27734,0c27.53467,0 44.78174,5.17187 51.47266,7.65234l10.99902,0c6.59766,-2.47363 23.71973,-7.65234 51.51856,-7.65234l5.27734,0l0,-105.54688l-5.27734,0zm-62.27246,102.09277c-8.45996,-2.75976 -23.92823,-6.52148 -46.44043,-7.03906l0,-84.25c10.2417,0.75049 32.96777,3.75195 46.44043,15.74658l0,75.54248zm56.99511,-7.03906c-22.51172,0.51758 -37.98047,4.2793 -46.44043,7.03906l0,-75.54248c13.47364,-11.9956 36.20118,-14.99658 46.44043,-15.74658l0,84.25z"/>
 </g>
</svg>